<mxfile host="app.diagrams.net" agent="Mozilla/5.0 (Macintosh; Intel Mac OS X 10_15_7) AppleWebKit/537.36 (KHTML, like Gecko) Chrome/128.0.0.0 Safari/537.36" version="24.7.7">
  <diagram name="Page-1" id="myT_h4T87O_rnGlymB6a">
    <mxGraphModel dx="919" dy="610" grid="1" gridSize="10" guides="1" tooltips="1" connect="1" arrows="1" fold="1" page="1" pageScale="1" pageWidth="827" pageHeight="1169" math="0" shadow="0">
      <root>
        <mxCell id="0" />
        <mxCell id="1" parent="0" />
        <mxCell id="-43H_BiCP9Q4W3HGKnAi-3" value="" style="rounded=0;whiteSpace=wrap;html=1;sketch=1;curveFitting=1;jiggle=2;fontFamily=Kalam;fontSource=https%3A%2F%2Ffonts.googleapis.com%2Fcss%3Ffamily%3DKalam;fillColor=#ffe6cc;strokeColor=#d79b00;" vertex="1" parent="1">
          <mxGeometry x="110" y="280" width="130" height="110" as="geometry" />
        </mxCell>
        <mxCell id="-43H_BiCP9Q4W3HGKnAi-12" style="rounded=0;sketch=1;hachureGap=4;jiggle=2;curveFitting=1;orthogonalLoop=1;jettySize=auto;html=1;exitX=1;exitY=0.5;exitDx=0;exitDy=0;fontFamily=Kalam;fontSource=https%3A%2F%2Ffonts.googleapis.com%2Fcss%3Ffamily%3DKalam;" edge="1" parent="1" source="-43H_BiCP9Q4W3HGKnAi-1" target="-43H_BiCP9Q4W3HGKnAi-8">
          <mxGeometry relative="1" as="geometry" />
        </mxCell>
        <mxCell id="-43H_BiCP9Q4W3HGKnAi-1" value="Question" style="rounded=0;whiteSpace=wrap;html=1;sketch=1;curveFitting=1;jiggle=2;fontFamily=Kalam;fontSource=https%3A%2F%2Ffonts.googleapis.com%2Fcss%3Ffamily%3DKalam;" vertex="1" parent="1">
          <mxGeometry x="125" y="300" width="100" height="30" as="geometry" />
        </mxCell>
        <mxCell id="-43H_BiCP9Q4W3HGKnAi-25" style="rounded=0;sketch=1;hachureGap=4;jiggle=2;curveFitting=1;orthogonalLoop=1;jettySize=auto;html=1;exitX=1;exitY=0.5;exitDx=0;exitDy=0;entryX=0;entryY=0.75;entryDx=0;entryDy=0;fontFamily=Kalam;fontSource=https%3A%2F%2Ffonts.googleapis.com%2Fcss%3Ffamily%3DKalam;" edge="1" parent="1" source="-43H_BiCP9Q4W3HGKnAi-2" target="-43H_BiCP9Q4W3HGKnAi-8">
          <mxGeometry relative="1" as="geometry" />
        </mxCell>
        <mxCell id="-43H_BiCP9Q4W3HGKnAi-2" value="Ground truth" style="rounded=0;whiteSpace=wrap;html=1;sketch=1;curveFitting=1;jiggle=2;fontFamily=Kalam;fontSource=https%3A%2F%2Ffonts.googleapis.com%2Fcss%3Ffamily%3DKalam;" vertex="1" parent="1">
          <mxGeometry x="125" y="340" width="100" height="30" as="geometry" />
        </mxCell>
        <mxCell id="-43H_BiCP9Q4W3HGKnAi-4" value="Testset" style="text;html=1;align=center;verticalAlign=middle;whiteSpace=wrap;rounded=0;sketch=1;curveFitting=1;jiggle=2;fontFamily=Kalam;fontSource=https%3A%2F%2Ffonts.googleapis.com%2Fcss%3Ffamily%3DKalam;" vertex="1" parent="1">
          <mxGeometry x="145" y="250" width="60" height="30" as="geometry" />
        </mxCell>
        <mxCell id="-43H_BiCP9Q4W3HGKnAi-13" style="rounded=0;sketch=1;hachureGap=4;jiggle=2;curveFitting=1;orthogonalLoop=1;jettySize=auto;html=1;exitX=1;exitY=0.25;exitDx=0;exitDy=0;entryX=-0.027;entryY=0.266;entryDx=0;entryDy=0;fontFamily=Kalam;fontSource=https%3A%2F%2Ffonts.googleapis.com%2Fcss%3Ffamily%3DKalam;entryPerimeter=0;" edge="1" parent="1" source="-43H_BiCP9Q4W3HGKnAi-8" target="-43H_BiCP9Q4W3HGKnAi-9">
          <mxGeometry relative="1" as="geometry" />
        </mxCell>
        <mxCell id="-43H_BiCP9Q4W3HGKnAi-18" value="Question" style="edgeLabel;html=1;align=center;verticalAlign=middle;resizable=0;points=[];sketch=1;hachureGap=4;jiggle=2;curveFitting=1;fontFamily=Kalam;fontSource=https%3A%2F%2Ffonts.googleapis.com%2Fcss%3Ffamily%3DKalam;" vertex="1" connectable="0" parent="-43H_BiCP9Q4W3HGKnAi-13">
          <mxGeometry y="-1" relative="1" as="geometry">
            <mxPoint as="offset" />
          </mxGeometry>
        </mxCell>
        <mxCell id="-43H_BiCP9Q4W3HGKnAi-33" style="rounded=0;sketch=1;hachureGap=4;jiggle=2;curveFitting=1;orthogonalLoop=1;jettySize=auto;html=1;exitX=0.25;exitY=1;exitDx=0;exitDy=0;entryX=1;entryY=0.25;entryDx=0;entryDy=0;fontFamily=Kalam;fontSource=https%3A%2F%2Ffonts.googleapis.com%2Fcss%3Ffamily%3DKalam;" edge="1" parent="1" source="-43H_BiCP9Q4W3HGKnAi-8" target="-43H_BiCP9Q4W3HGKnAi-32">
          <mxGeometry relative="1" as="geometry" />
        </mxCell>
        <mxCell id="-43H_BiCP9Q4W3HGKnAi-37" value="judge" style="edgeLabel;html=1;align=center;verticalAlign=middle;resizable=0;points=[];sketch=1;hachureGap=4;jiggle=2;curveFitting=1;fontFamily=Kalam;fontSource=https%3A%2F%2Ffonts.googleapis.com%2Fcss%3Ffamily%3DKalam;" vertex="1" connectable="0" parent="-43H_BiCP9Q4W3HGKnAi-33">
          <mxGeometry x="0.0488" y="-3" relative="1" as="geometry">
            <mxPoint as="offset" />
          </mxGeometry>
        </mxCell>
        <mxCell id="-43H_BiCP9Q4W3HGKnAi-36" style="rounded=0;sketch=1;hachureGap=4;jiggle=2;curveFitting=1;orthogonalLoop=1;jettySize=auto;html=1;exitX=0.75;exitY=1;exitDx=0;exitDy=0;fontFamily=Kalam;fontSource=https%3A%2F%2Ffonts.googleapis.com%2Fcss%3Ffamily%3DKalam;" edge="1" parent="1" source="-43H_BiCP9Q4W3HGKnAi-8" target="-43H_BiCP9Q4W3HGKnAi-35">
          <mxGeometry relative="1" as="geometry" />
        </mxCell>
        <mxCell id="-43H_BiCP9Q4W3HGKnAi-8" value="Testframework" style="rounded=0;whiteSpace=wrap;html=1;sketch=1;curveFitting=1;jiggle=2;fontFamily=Kalam;fontSource=https%3A%2F%2Ffonts.googleapis.com%2Fcss%3Ffamily%3DKalam;fillColor=#ffe6cc;strokeColor=#d79b00;" vertex="1" parent="1">
          <mxGeometry x="320" y="305" width="120" height="60" as="geometry" />
        </mxCell>
        <mxCell id="-43H_BiCP9Q4W3HGKnAi-14" style="rounded=0;sketch=1;hachureGap=4;jiggle=2;curveFitting=1;orthogonalLoop=1;jettySize=auto;html=1;exitX=1;exitY=0.25;exitDx=0;exitDy=0;entryX=0;entryY=0.75;entryDx=0;entryDy=0;fontFamily=Kalam;fontSource=https%3A%2F%2Ffonts.googleapis.com%2Fcss%3Ffamily%3DKalam;" edge="1" parent="1" source="-43H_BiCP9Q4W3HGKnAi-9" target="-43H_BiCP9Q4W3HGKnAi-10">
          <mxGeometry relative="1" as="geometry" />
        </mxCell>
        <mxCell id="-43H_BiCP9Q4W3HGKnAi-20" value="request answer&lt;br&gt;(with chunks)" style="edgeLabel;html=1;align=center;verticalAlign=middle;resizable=0;points=[];sketch=1;hachureGap=4;jiggle=2;curveFitting=1;fontFamily=Kalam;fontSource=https%3A%2F%2Ffonts.googleapis.com%2Fcss%3Ffamily%3DKalam;" vertex="1" connectable="0" parent="-43H_BiCP9Q4W3HGKnAi-14">
          <mxGeometry x="-0.1677" y="1" relative="1" as="geometry">
            <mxPoint x="11" y="4" as="offset" />
          </mxGeometry>
        </mxCell>
        <mxCell id="-43H_BiCP9Q4W3HGKnAi-15" style="rounded=0;sketch=1;hachureGap=4;jiggle=2;curveFitting=1;orthogonalLoop=1;jettySize=auto;html=1;exitX=1;exitY=0.75;exitDx=0;exitDy=0;fontFamily=Kalam;fontSource=https%3A%2F%2Ffonts.googleapis.com%2Fcss%3Ffamily%3DKalam;entryX=0;entryY=0.25;entryDx=0;entryDy=0;" edge="1" parent="1" source="-43H_BiCP9Q4W3HGKnAi-9" target="-43H_BiCP9Q4W3HGKnAi-11">
          <mxGeometry relative="1" as="geometry" />
        </mxCell>
        <mxCell id="-43H_BiCP9Q4W3HGKnAi-19" value="find chunks" style="edgeLabel;html=1;align=center;verticalAlign=middle;resizable=0;points=[];sketch=1;hachureGap=4;jiggle=2;curveFitting=1;fontFamily=Kalam;fontSource=https%3A%2F%2Ffonts.googleapis.com%2Fcss%3Ffamily%3DKalam;" vertex="1" connectable="0" parent="-43H_BiCP9Q4W3HGKnAi-15">
          <mxGeometry x="-0.0851" y="2" relative="1" as="geometry">
            <mxPoint as="offset" />
          </mxGeometry>
        </mxCell>
        <mxCell id="-43H_BiCP9Q4W3HGKnAi-21" style="edgeStyle=orthogonalEdgeStyle;rounded=0;sketch=1;hachureGap=4;jiggle=2;curveFitting=1;orthogonalLoop=1;jettySize=auto;html=1;exitX=0;exitY=0.5;exitDx=0;exitDy=0;entryX=1;entryY=0.5;entryDx=0;entryDy=0;fontFamily=Kalam;fontSource=https%3A%2F%2Ffonts.googleapis.com%2Fcss%3Ffamily%3DKalam;" edge="1" parent="1" source="-43H_BiCP9Q4W3HGKnAi-9" target="-43H_BiCP9Q4W3HGKnAi-8">
          <mxGeometry relative="1" as="geometry" />
        </mxCell>
        <mxCell id="-43H_BiCP9Q4W3HGKnAi-22" value="Answer" style="edgeLabel;html=1;align=center;verticalAlign=middle;resizable=0;points=[];sketch=1;hachureGap=4;jiggle=2;curveFitting=1;fontFamily=Kalam;fontSource=https%3A%2F%2Ffonts.googleapis.com%2Fcss%3Ffamily%3DKalam;" vertex="1" connectable="0" parent="-43H_BiCP9Q4W3HGKnAi-21">
          <mxGeometry x="0.1536" y="-1" relative="1" as="geometry">
            <mxPoint x="6" as="offset" />
          </mxGeometry>
        </mxCell>
        <mxCell id="-43H_BiCP9Q4W3HGKnAi-23" style="edgeStyle=orthogonalEdgeStyle;rounded=0;sketch=1;hachureGap=4;jiggle=2;curveFitting=1;orthogonalLoop=1;jettySize=auto;html=1;exitX=-0.023;exitY=0.766;exitDx=0;exitDy=0;entryX=1;entryY=0.75;entryDx=0;entryDy=0;fontFamily=Kalam;fontSource=https%3A%2F%2Ffonts.googleapis.com%2Fcss%3Ffamily%3DKalam;exitPerimeter=0;" edge="1" parent="1" source="-43H_BiCP9Q4W3HGKnAi-9" target="-43H_BiCP9Q4W3HGKnAi-8">
          <mxGeometry relative="1" as="geometry" />
        </mxCell>
        <mxCell id="-43H_BiCP9Q4W3HGKnAi-24" value="Chunks" style="edgeLabel;html=1;align=center;verticalAlign=middle;resizable=0;points=[];sketch=1;hachureGap=4;jiggle=2;curveFitting=1;fontFamily=Kalam;fontSource=https%3A%2F%2Ffonts.googleapis.com%2Fcss%3Ffamily%3DKalam;" vertex="1" connectable="0" parent="-43H_BiCP9Q4W3HGKnAi-23">
          <mxGeometry x="0.1897" y="-2" relative="1" as="geometry">
            <mxPoint x="8" as="offset" />
          </mxGeometry>
        </mxCell>
        <mxCell id="-43H_BiCP9Q4W3HGKnAi-9" value="App" style="rounded=0;whiteSpace=wrap;html=1;sketch=1;curveFitting=1;jiggle=2;fontFamily=Kalam;fontSource=https%3A%2F%2Ffonts.googleapis.com%2Fcss%3Ffamily%3DKalam;fillColor=#fff2cc;strokeColor=#d6b656;" vertex="1" parent="1">
          <mxGeometry x="520" y="305" width="120" height="60" as="geometry" />
        </mxCell>
        <mxCell id="-43H_BiCP9Q4W3HGKnAi-30" style="rounded=0;sketch=1;hachureGap=4;jiggle=2;curveFitting=1;orthogonalLoop=1;jettySize=auto;html=1;exitX=0;exitY=0.25;exitDx=0;exitDy=0;entryX=1;entryY=0;entryDx=0;entryDy=0;fontFamily=Kalam;fontSource=https%3A%2F%2Ffonts.googleapis.com%2Fcss%3Ffamily%3DKalam;" edge="1" parent="1" source="-43H_BiCP9Q4W3HGKnAi-10" target="-43H_BiCP9Q4W3HGKnAi-9">
          <mxGeometry relative="1" as="geometry" />
        </mxCell>
        <mxCell id="-43H_BiCP9Q4W3HGKnAi-31" value="respond" style="edgeLabel;html=1;align=center;verticalAlign=middle;resizable=0;points=[];sketch=1;hachureGap=4;jiggle=2;curveFitting=1;fontFamily=Kalam;fontSource=https%3A%2F%2Ffonts.googleapis.com%2Fcss%3Ffamily%3DKalam;" vertex="1" connectable="0" parent="-43H_BiCP9Q4W3HGKnAi-30">
          <mxGeometry x="-0.123" y="-2" relative="1" as="geometry">
            <mxPoint as="offset" />
          </mxGeometry>
        </mxCell>
        <mxCell id="-43H_BiCP9Q4W3HGKnAi-10" value="LLM" style="rounded=0;whiteSpace=wrap;html=1;sketch=1;curveFitting=1;jiggle=2;fontFamily=Kalam;fontSource=https%3A%2F%2Ffonts.googleapis.com%2Fcss%3Ffamily%3DKalam;fillColor=#dae8fc;strokeColor=#6c8ebf;" vertex="1" parent="1">
          <mxGeometry x="770" y="230" width="120" height="60" as="geometry" />
        </mxCell>
        <mxCell id="-43H_BiCP9Q4W3HGKnAi-28" style="rounded=0;sketch=1;hachureGap=4;jiggle=2;curveFitting=1;orthogonalLoop=1;jettySize=auto;html=1;exitX=0;exitY=0.75;exitDx=0;exitDy=0;entryX=1;entryY=1;entryDx=0;entryDy=0;fontFamily=Kalam;fontSource=https%3A%2F%2Ffonts.googleapis.com%2Fcss%3Ffamily%3DKalam;" edge="1" parent="1" source="-43H_BiCP9Q4W3HGKnAi-11" target="-43H_BiCP9Q4W3HGKnAi-9">
          <mxGeometry relative="1" as="geometry" />
        </mxCell>
        <mxCell id="-43H_BiCP9Q4W3HGKnAi-29" value="return chunks" style="edgeLabel;html=1;align=center;verticalAlign=middle;resizable=0;points=[];sketch=1;hachureGap=4;jiggle=2;curveFitting=1;fontFamily=Kalam;fontSource=https%3A%2F%2Ffonts.googleapis.com%2Fcss%3Ffamily%3DKalam;" vertex="1" connectable="0" parent="-43H_BiCP9Q4W3HGKnAi-28">
          <mxGeometry x="-0.0523" relative="1" as="geometry">
            <mxPoint as="offset" />
          </mxGeometry>
        </mxCell>
        <mxCell id="-43H_BiCP9Q4W3HGKnAi-11" value="Chunkstore" style="rounded=0;whiteSpace=wrap;html=1;sketch=1;curveFitting=1;jiggle=2;fontFamily=Kalam;fontSource=https%3A%2F%2Ffonts.googleapis.com%2Fcss%3Ffamily%3DKalam;fillColor=#d5e8d4;strokeColor=#82b366;" vertex="1" parent="1">
          <mxGeometry x="770" y="390" width="120" height="60" as="geometry" />
        </mxCell>
        <mxCell id="-43H_BiCP9Q4W3HGKnAi-34" style="rounded=0;sketch=1;hachureGap=4;jiggle=2;curveFitting=1;orthogonalLoop=1;jettySize=auto;html=1;exitX=1;exitY=0.75;exitDx=0;exitDy=0;entryX=0.5;entryY=1;entryDx=0;entryDy=0;fontFamily=Kalam;fontSource=https%3A%2F%2Ffonts.googleapis.com%2Fcss%3Ffamily%3DKalam;" edge="1" parent="1" source="-43H_BiCP9Q4W3HGKnAi-32" target="-43H_BiCP9Q4W3HGKnAi-8">
          <mxGeometry relative="1" as="geometry" />
        </mxCell>
        <mxCell id="-43H_BiCP9Q4W3HGKnAi-38" value="respond with&lt;br&gt;numeric result" style="edgeLabel;html=1;align=center;verticalAlign=middle;resizable=0;points=[];sketch=1;hachureGap=4;jiggle=2;curveFitting=1;fontFamily=Kalam;fontSource=https%3A%2F%2Ffonts.googleapis.com%2Fcss%3Ffamily%3DKalam;" vertex="1" connectable="0" parent="-43H_BiCP9Q4W3HGKnAi-34">
          <mxGeometry x="-0.3374" y="3" relative="1" as="geometry">
            <mxPoint x="28" as="offset" />
          </mxGeometry>
        </mxCell>
        <mxCell id="-43H_BiCP9Q4W3HGKnAi-32" value="LLM" style="rounded=0;whiteSpace=wrap;html=1;sketch=1;curveFitting=1;jiggle=2;fontFamily=Kalam;fontSource=https%3A%2F%2Ffonts.googleapis.com%2Fcss%3Ffamily%3DKalam;fillColor=#f8cecc;strokeColor=#b85450;" vertex="1" parent="1">
          <mxGeometry x="120" y="440" width="120" height="60" as="geometry" />
        </mxCell>
        <mxCell id="-43H_BiCP9Q4W3HGKnAi-35" value="&lt;font style=&quot;font-size: 18px;&quot;&gt;Metrics&lt;/font&gt;" style="rounded=0;whiteSpace=wrap;html=1;sketch=1;curveFitting=1;jiggle=2;fontFamily=Kalam;fontSource=https%3A%2F%2Ffonts.googleapis.com%2Fcss%3Ffamily%3DKalam;fillColor=#f0a30a;fontColor=#000000;strokeColor=#BD7000;" vertex="1" parent="1">
          <mxGeometry x="420" y="510" width="120" height="60" as="geometry" />
        </mxCell>
      </root>
    </mxGraphModel>
  </diagram>
</mxfile>
